<svg xmlns:inkscape="http://www.inkscape.org/namespaces/inkscape" xmlns:sodipodi="http://sodipodi.sourceforge.net/DTD/sodipodi-0.dtd" xmlns="http://www.w3.org/2000/svg" xmlns:svg="http://www.w3.org/2000/svg" version="1.1" viewBox="0 0 4253.7573 4716.66075" x="0px" y="0px"><g transform="translate(-394.28953,-1014.1582)"><path style="" d="m 2454.0263,4786.0199 c -26.0511,-3.1119 -55.3306,-9.9556 -79.1784,-18.507 -69.5795,-24.9498 -130.7488,-72.1982 -172.0629,-132.9048 -33.2971,-48.9264 -52.6168,-101.3071 -59.9353,-162.5 -1.6134,-13.4902 -1.6225,-59.1786 -0.015,-73 6.7422,-57.9551 24.6655,-108.6648 54.9128,-155.3625 25.8458,-39.9023 58.5112,-73.2437 98.5204,-100.5592 98.3583,-67.1521 225.9056,-79.3405 336.647,-32.1699 17.8632,7.6089 22.9531,10.2052 40.611,20.7153 90.108,53.6329 150.7476,141.6458 168.3715,244.3763 3.6578,21.3218 4.574,33.3947 4.553,60 -0.023,28.6594 -1.3961,43.2912 -6.43,68.5 -30.1474,150.9728 -155.148,265.3247 -307.7339,281.5182 -17.5367,1.8611 -62.2989,1.8003 -78.2606,-0.1064 z m 73,-99.8736 c 55.1596,-6.6951 109.2536,-33.8859 148.5329,-74.6612 37.6468,-39.0806 60.8578,-86.3742 69.1405,-140.877 2.1914,-14.4195 2.4446,-50.5931 0.4621,-66 -5.8108,-45.1587 -22.0658,-85.2165 -49.5061,-122 -9.273,-12.4303 -37.5488,-40.7289 -49.775,-49.8151 -32.5055,-24.1572 -67.5325,-39.1022 -109.8544,-46.8718 -25.7053,-4.7191 -64.8042,-4.201 -91.669,1.2147 -36.5052,7.359 -72.0563,23.2467 -102.1854,45.6662 -14.0852,10.4811 -39.9551,36.7021 -51.1122,51.806 -26.0371,35.2476 -41.604,73.3419 -47.769,116.8969 -1.1129,7.8626 -1.6579,18.8564 -1.6906,34.1031 -0.049,22.8464 0.731,31.5336 4.5346,50.5 16.0697,80.1296 72.6813,149.6833 147.9759,181.8049 25.8467,11.0265 49.5639,16.7438 83.4157,20.1084 7.5842,0.7538 37.031,-0.3617 49.5,-1.8751 z m 29.6313,-638.5796 c -26.3278,-4.3245 -48.0595,-8.0534 -48.2926,-8.2865 -0.354,-0.3541 13.5339,-87.8436 15.1947,-95.7217 l 0.5375,-2.5496 48.9645,8.0199 c 45.959,7.5277 48.9628,8.1446 48.9345,10.0496 -0.079,5.3161 -15.6075,95.8977 -16.4762,96.1091 -0.5465,0.133 -22.5346,-3.2963 -48.8624,-7.6208 z M 703.02628,3862.5179 c -79.74749,-10.2623 -151.73044,-46.0907 -208.08663,-103.5719 -38.65491,-39.4266 -65.4961,-83.5471 -82.94265,-136.3379 -24.93597,-75.4528 -23.49281,-158.2099 4.05917,-232.7714 6.14239,-16.6225 22.40502,-49.7581 31.648,-64.4836 41.53599,-66.1733 105.38419,-117.9678 177.76425,-144.2046 25.83538,-9.3649 43.88217,-13.9121 72.16047,-18.1817 16.52533,-2.4952 20.35059,-2.706 49.89739,-2.7507 28.29446,-0.043 33.79487,0.2161 47.5,2.2352 91.42439,13.4694 170.29516,58.2277 227.11072,128.8828 10.8199,13.4556 25.7144,35.4675 32.8674,48.5732 2.3412,4.2896 4.4275,7.6285 4.6363,7.4197 0.2088,-0.2087 -2.0426,-5.7434 -5.0029,-12.2992 -2.9604,-6.5558 -5.0815,-12.2497 -4.7136,-12.6531 0.3679,-0.4034 49.0289,-22.3822 108.1355,-48.8419 59.1066,-26.4598 165.0666,-73.9056 235.4666,-105.4353 70.4,-31.5296 184.475,-82.6132 253.5,-113.519 69.025,-30.9058 183.55,-82.1924 254.5,-113.9703 272.8407,-122.2028 348.2719,-155.9202 349.4559,-156.2051 0.7099,-0.1709 3.1442,4.0252 5.7848,9.9718 5.0268,11.32 6.6863,13.244 2.7225,3.1563 -9.3103,-23.694 -21.1466,-65.7657 -26.4241,-93.9231 -7.5747,-40.4143 -9.5559,-63.3202 -9.4712,-109.5 0.068,-37.2501 0.948,-51.2439 4.9974,-79.5 28.9279,-201.8531 165.1302,-374.1844 355.1172,-449.3156 48.22,-19.0688 95.8348,-30.7638 149.8175,-36.7978 27.1858,-3.0388 86.5974,-3.3477 113.5,-0.5903 80.2465,8.2251 151.8859,30.1861 220.75,67.6709 6.1875,3.368 11.25,5.9102 11.25,5.6493 0,-0.2609 -3.4496,-2.6439 -7.6657,-5.2955 -4.2161,-2.6515 -8.0808,-5.0971 -8.5882,-5.4345 -0.8022,-0.5335 289.7104,-450.4945 293.3115,-454.2961 0.5081,-0.5364 2.6219,0.2561 5.152,1.9317 10.8754,7.2022 21.1506,13.5689 19.7904,12.2625 -0.825,-0.7924 -7.3642,-6.2155 -14.5316,-12.0514 -14.8273,-12.0726 -39.3461,-36.6671 -50.5772,-50.7332 -41.2943,-51.718 -65.8305,-108.9048 -75.5135,-176 -2.1165,-14.6655 -2.9398,-58.4967 -1.4313,-76.1929 8.4986,-99.6924 59.4738,-191.6373 139.41,-251.4563 47.4305,-35.4939 98.6862,-57.2106 158.1436,-67.0045 16.4287,-2.7062 18.2266,-2.8002 53.5,-2.7961 40.1551,0 48.4821,0.804 78.7958,7.5651 47.0805,10.5007 98.3658,34.5614 135.829,63.7246 75.9283,59.1064 122.8493,140.2843 135.923,235.1601 2.1589,15.667 3.0495,59.2432 1.5467,75.677 -4.2047,45.9812 -15.756,86.7581 -36.1259,127.5275 -18.0674,36.1608 -39.481,65.3587 -69.2969,94.4879 -48.3552,47.2415 -104.2697,77.5622 -170.3501,92.3757 -26.5178,5.9446 -40.6647,7.352 -74.3216,7.3939 -19.6144,0.024 -34.2475,-0.4353 -41,-1.2881 -47.1764,-5.958 -92.1676,-20.2023 -129.75,-41.079 -3.9875,-2.215 -7.25,-3.8784 -7.25,-3.6964 0,0.1819 5.8537,4.1042 13.0082,8.7162 7.1546,4.6119 12.8333,8.8446 12.6194,9.406 -0.2139,0.5614 -32.0193,49.8364 -70.6788,109.5 -74.5622,115.0727 -205.9981,317.8938 -216.5934,334.2293 -3.4781,5.3625 -6.5517,9.75 -6.8301,9.75 -0.2784,0 -5.6855,-3.3627 -12.0158,-7.4727 -6.3302,-4.1099 -11.5095,-7.296 -11.5095,-7.0802 0,0.2158 3.2625,2.7475 7.25,5.6259 9.9449,7.1789 23.3201,17.7451 35.25,27.8471 13.0141,11.0201 45.1718,42.705 56.9166,56.0799 85.3881,97.2392 134.6322,217.4384 141.5472,345.5 0.5642,10.45 1.0956,24.85 1.1808,32 l 0.1549,13 0.9459,-13.5 c 0.5203,-7.425 1.0154,-13.5511 1.1003,-13.6136 0.085,-0.062 41.3293,2.5148 91.6543,5.7272 50.325,3.2124 148.875,9.4548 219,13.8719 70.125,4.4172 159,10.046 197.5,12.5085 38.5,2.4625 70.45,4.4835 71,4.491 0.6424,0.01 0.7676,3.5003 0.3502,9.7643 -0.7129,10.6983 -0.816,21.2075 -0.1692,17.2507 0.2248,-1.375 1.3216,-8.125 2.4373,-15 12.2491,-75.4789 52.7389,-149.2454 110.418,-201.1656 44.0905,-39.6882 95.1933,-66.9703 152.3627,-81.3411 49.648,-12.4802 104.9915,-13.6706 155.5408,-3.3456 45.3203,9.257 86.0186,26.2863 125.0602,52.3287 86.6496,57.7989 143.1216,150.1952 154.9519,253.5236 2.0976,18.3204 2.0898,61.7908 -0.014,80 -14.8507,128.5218 -98.391,238.5303 -217.9377,286.9869 -44.2945,17.9542 -89.3085,26.3385 -137,25.5175 -71.8537,-1.2368 -133.6927,-20.5989 -193.9243,-60.7183 -52.6862,-35.0936 -97.2042,-88.0395 -123.5429,-146.9313 -19.3306,-43.2222 -29.1515,-85.9002 -30.8022,-133.8548 l -0.6712,-19.5 -1.105,17.742 c -0.6078,9.7581 -1.2961,17.9066 -1.5297,18.1079 -0.2336,0.2012 -30.5747,-1.5716 -67.4247,-3.9396 -104.2148,-6.6969 -312.7142,-19.7996 -412,-25.8914 -49.5,-3.0371 -92.3845,-5.7814 -95.2988,-6.0985 l -5.2988,-0.5765 0.478,-11.172 c 0.2628,-6.1445 0.2732,-9.8219 0.023,-8.1719 -0.2502,1.65 -1.3663,9.3 -2.4802,17 -12.5051,86.4423 -45.1692,169.1488 -95.5756,242 -19.4838,28.1595 -38.3637,50.5172 -66.3393,78.5594 -45.4409,45.549 -91.6941,78.8624 -149.0536,107.3541 -63.7629,31.6725 -129.5228,50.3462 -201.4546,57.2068 -24.7391,2.3595 -81.4126,2.3544 -103.8866,-0.01 -8.7377,-0.9191 -16.0488,-1.5089 -16.2469,-1.3107 -0.1982,0.1981 5.0182,1.1852 11.592,2.1934 6.5737,1.0083 12.3993,2.1095 12.9456,2.4472 0.962,0.5945 -14.0502,96.5387 -15.3009,97.7893 -0.4767,0.4767 -94.0204,-14.1321 -97.175,-15.1759 -0.7027,-0.2325 1.6685,-17.1763 6.8858,-49.2044 4.3767,-26.8674 8.0914,-49.0073 8.255,-49.1997 0.1637,-0.1925 6.2076,0.64 13.431,1.8499 7.2234,1.2099 13.3435,1.9898 13.6002,1.7331 0.2568,-0.2567 -1.4608,-0.7642 -3.8167,-1.1278 -2.3559,-0.3635 -12.3835,-2.6568 -22.2835,-5.0961 -59.1329,-14.5702 -120.4617,-41.6145 -174.5,-76.9498 -48.5975,-31.7776 -98.1693,-77.6975 -135.6378,-125.6456 -19.2142,-24.5882 -39.0902,-54.9564 -51.8925,-79.2855 -3.6848,-7.0024 -6.8824,-12.5489 -7.1058,-12.3255 -0.2234,0.2234 1.4033,4.3414 3.615,9.1512 2.2116,4.8098 4.0211,9.3165 4.0211,10.0149 0,0.6983 -2.5875,2.4096 -5.75,3.8028 -3.1625,1.3933 -62,27.727 -130.75,58.5195 -738.0063,330.5455 -1063.781,476.329 -1064.8896,476.5358 -0.5102,0.095 -3.4051,-5.3407 -6.4331,-12.0797 -3.0279,-6.7389 -5.6531,-12.1048 -5.8338,-11.9241 -0.1807,0.1806 1.2593,5.0193 3.2,10.7526 11.2125,33.1249 17.0831,66.6026 18.1362,103.4242 3.0987,108.3462 -43.8281,211.5537 -127.90309,281.3008 -46.9887,38.9811 -104.95716,65.5249 -166.34285,76.1687 -25.59287,4.4376 -75.65821,5.386 -102.43378,1.9403 z m 78.39541,-99.4857 c 72.04596,-9.8988 135.9542,-49.9709 176.10767,-110.4241 22.20424,-33.4297 35.01672,-67.7738 40.66372,-109 1.96752,-14.3639 1.6828,-52.7473 -0.497,-67 -11.75451,-76.8592 -55.62563,-142.5105 -121.58757,-181.9508 -27.2074,-16.268 -58.69457,-27.458 -91.58223,-32.5468 -14.30315,-2.2132 -47.3224,-3.0579 -62,-1.5861 -85.16598,8.5399 -159.88955,58.8518 -199.47561,134.3085 -38.99841,74.3364 -38.42452,164.4293 1.51539,237.8947 40.82248,75.0887 114.50789,123.5339 200.53207,131.8418 12.40437,1.1979 42.36861,0.3802 56.32356,-1.5372 z m 1940.87361,-601.08 c -0.677,-0.274 -2.027,-0.2906 -3,-0.037 -0.9729,0.2536 -0.419,0.4777 1.231,0.4981 1.65,0.02 2.4461,-0.1871 1.769,-0.461 z m -38.019,-6.0064 c -0.6875,-0.2774 -1.8125,-0.2774 -2.5,0 -0.6875,0.2774 -0.125,0.5044 1.25,0.5044 1.375,0 1.9375,-0.227 1.25,-0.5044 z m 137.25,-90.3697 c 63.9379,-3.8086 122.8405,-19.4241 181,-47.9844 46.3193,-22.746 85.6573,-51.1694 124.5315,-89.9794 73.5639,-73.4422 120.3535,-169.0389 133.3767,-272.5042 5.2583,-41.7748 4.5325,-91.1926 -1.9458,-132.5 -15.5573,-99.1965 -63.8708,-192.7363 -135.582,-262.5 -38.4087,-37.3657 -74.2721,-62.7776 -121.3804,-86.0071 -50.8726,-25.0856 -98.5734,-39.1197 -156.5,-46.0437 -18.3739,-2.1962 -64.7589,-3.0389 -84.7409,-1.5395 -83.5961,6.2731 -160.2594,32.6099 -228.7591,78.5879 -97.3709,65.3567 -166.3425,163.4343 -194.8284,277.0457 -8.7844,35.0354 -12.5524,64.2013 -13.3655,103.4567 -0.9413,45.439 2.7371,80.4703 12.7843,121.7524 17.3384,71.2397 51.543,138.1656 99.2198,194.1368 11.3542,13.3294 37.8961,39.8906 51.6898,51.7272 92.72,79.5644 212.0519,119.6455 334.5,112.3516 z m 1495.5,-123.0071 c 59.505,-5.3416 112.3528,-29.2751 154.3739,-69.9122 41.3886,-40.0254 66.7303,-90.0425 75.2638,-148.5487 2.1259,-14.5755 2.4237,-49.3144 0.5443,-63.5 -6.2915,-47.4881 -24.4436,-91.0617 -52.744,-126.6101 -33.6588,-42.2791 -76.6977,-71.1142 -129.438,-86.7205 -38.1195,-11.2799 -82.8,-12.5869 -124.5,-3.6419 -25.7163,5.5163 -60.0804,19.9696 -82.5,34.6988 -28.4351,18.6812 -54.4563,44.5854 -73.879,73.5466 -7.0352,10.4902 -19.0903,33.8761 -24.0761,46.7055 -12.6304,32.5006 -17.872,63.9639 -16.7312,100.4314 1.2333,39.4256 9.4931,71.7206 27.2996,106.7389 33.2293,65.3488 94.6404,113.7931 165.8867,130.8603 10.6422,2.5494 27.3851,5.2521 39,6.2955 8.9651,0.8053 30.7056,0.6253 41.5,-0.3436 z M 2263.1484,2806.9331 c -1.1789,-2.0272 -1.4635,-1.3784 -0.4986,1.1363 0.343,0.8937 0.8342,1.4143 1.0917,1.1568 0.2575,-0.2574 -0.01,-1.2893 -0.5931,-2.2931 z m 1098.5402,-153.575 c -0.2774,-0.6875 -0.5044,-0.125 -0.5044,1.25 0,1.375 0.227,1.9375 0.5044,1.25 0.2774,-0.6875 0.2774,-1.8125 0,-2.5 z m 254.914,-1035.825 c 39.6055,-3.8978 80.4228,-18.6244 114.4237,-41.2833 55.673,-37.1016 95.4007,-96.9785 107.9111,-162.6417 3.1757,-16.6684 4.1895,-28.1876 4.1801,-47.4931 -0.02,-41.9009 -7.9419,-76.1009 -26.0757,-112.579 -11.962,-24.063 -25.4611,-43.1125 -44.5089,-62.8096 -40.505,-41.8856 -90.8607,-67.526 -148.9725,-75.8547 -20.9647,-3.0046 -55.2599,-2.0164 -78.7289,2.2686 -88.9558,16.2419 -163.5768,80.1987 -193.3417,165.711 -27.653,79.445 -13.6173,168.2211 37.2431,235.5635 40.55,53.6907 103.1668,90.0274 169.8573,98.5685 13.4095,1.7174 43.2723,2.0004 58.0124,0.5498 z M 2589.0263,3850.2907 c -26.675,-4.3862 -48.6183,-8.0649 -48.7629,-8.1749 -0.3308,-0.2519 15.5347,-97.6128 15.979,-98.0572 0.1797,-0.1797 22.303,3.2454 49.1628,7.6114 26.8599,4.366 48.9268,7.9381 49.0376,7.9381 0.4943,0 -15.6862,97.5627 -16.2661,98.0787 -0.3577,0.3183 -22.4754,-3.01 -49.1504,-7.3961 z m 30.7623,-197.6231 c -25.7057,-4.2358 -46.9302,-7.8946 -47.1656,-8.1305 -0.5154,-0.5166 15.1497,-97.0088 15.8651,-97.7242 0.4389,-0.4389 94.2693,14.2973 97.1553,15.2584 0.8123,0.2705 0.7598,2.5083 -0.1927,8.2044 -0.7204,4.3078 -4.3254,26.3949 -8.0111,49.0824 -6.3904,39.3358 -6.7991,41.2445 -8.8074,41.1305 -1.1582,-0.066 -23.1379,-3.5852 -48.8436,-7.821 z m 32.5038,-197.3174 c -46.693,-7.7663 -48.2184,-8.09 -47.7503,-10.1323 0.2659,-1.1604 3.9021,-23.2598 8.0805,-49.1098 4.1783,-25.85 7.6762,-47.0852 7.7731,-47.1894 0.1871,-0.2013 98.0038,15.7706 98.312,16.0528 0.1,0.091 -3.3845,21.9844 -7.7427,48.6513 -4.3583,26.6669 -7.9274,48.8228 -7.9314,49.2353 -0.01,0.9982 3.6972,1.5467 -50.7412,-7.5079 z M 2239.9445,2184.007 c -18.93,-16.2805 -35.7112,-30.8572 -37.2915,-32.3925 l -2.8734,-2.7915 32.2626,-37.3575 c 17.7443,-20.5466 32.5747,-37.3574 32.9562,-37.3574 0.8396,0 75.0128,63.7837 75.0217,64.5133 0.013,1.0556 -64.0244,74.9867 -64.9515,74.9867 -0.3883,0 -16.1941,-13.3205 -35.1241,-29.6011 z m -153.7824,-132.8205 c -20.5503,-17.7725 -37.2523,-32.7107 -37.1156,-33.196 0.1366,-0.4853 14.6765,-17.6079 32.3109,-38.0502 31.4146,-36.417 32.1047,-37.1342 34.1577,-35.5 1.1524,0.9173 18.1871,15.5641 37.8548,32.5485 l 35.7594,30.8807 -1.8965,2.1193 c -1.0431,1.1656 -15.738,18.2068 -32.6553,37.8693 -16.9174,19.6625 -30.8246,35.7257 -30.905,35.6959 -0.08,-0.03 -16.9601,-14.5951 -37.5104,-32.3675 z M 1934.763,1920.416 c -20.6811,-17.7694 -37.5198,-32.6016 -37.4194,-32.9607 0.5191,-1.8548 64.3417,-74.8392 65.2469,-74.6131 0.5854,0.1463 17.7542,14.6657 38.153,32.2656 l 37.0887,31.9996 -5.1959,6.0004 c -2.8577,3.3001 -16.6065,19.2753 -30.5529,35.5003 -13.9464,16.225 -26.3383,30.5385 -27.5377,31.8079 l -2.1806,2.3078 z m -452.2367,-80.4604 c -42.626,-3.3705 -88.1977,-15.9472 -127.0043,-35.0501 -15.1066,-7.4364 -22.6423,-11.7675 -37.9957,-21.8377 -39.1167,-25.6567 -75.658,-61.9636 -100.7951,-100.1485 -30.8143,-46.809 -49.2578,-97.307 -56.3594,-154.3112 -2.422,-19.442 -2.4203,-62.6259 0,-81.5 5.6455,-43.9652 16.9794,-81.2933 36.1319,-119 26.8545,-52.8697 69.1783,-100.6253 118.0194,-133.1656 46.1544,-30.7504 95.9793,-49.4992 151.5,-57.0085 19.3592,-2.6183 70.7059,-2.6133 90,0.01 42.6241,5.7928 76.7706,16.4007 115.1696,35.7782 54.3477,27.4259 100.2345,68.7318 135.3042,121.7967 30.3695,45.9529 49.037,98.4356 55.6976,156.5904 0.6929,6.05 1.2598,22.25 1.2598,36 0,25.4135 -0.9301,37.5213 -4.5321,59 -8.8803,52.9523 -30.9142,105.4986 -61.9551,147.75 -4.3437,5.9125 -7.7354,10.75 -7.5371,10.75 0.1984,0 5.0076,-5.406 10.6871,-12.0132 5.6796,-6.6073 10.6659,-11.8948 11.0807,-11.75 1.6742,0.5843 74.8395,64.214 74.5921,64.8704 -0.456,1.2099 -64.1739,74.8946 -64.7359,74.862 -0.292,-0.017 -5.0706,-3.9545 -10.6192,-8.75 -5.5486,-4.7956 -22.3216,-19.2626 -37.2734,-32.149 -14.9518,-12.8864 -27.0621,-23.7793 -26.9117,-24.2063 0.1504,-0.4271 5.2011,-6.5337 11.2238,-13.5702 l 10.9504,-12.7937 -12.9055,12.3545 c -39.5871,37.8966 -84.7744,64.7983 -137.825,82.0524 -21.8169,7.0956 -49.9298,12.8061 -74.1703,15.066 -9.8843,0.9214 -50.8989,1.1733 -61,0.3746 z m 61,-100.9464 c 71.8527,-8.8096 137.5494,-49.7906 178.5873,-111.4011 8.0221,-12.0438 20.6264,-36.5611 25.362,-49.3335 24.7642,-66.791 21.407,-138.785 -9.3807,-201.1665 -34.4277,-69.7569 -96.7287,-118.811 -172.6664,-135.953 -23.6589,-5.3406 -58.8428,-7.2853 -82.4022,-4.5545 -84.9698,9.849 -158.8683,61.1085 -197.4323,136.9485 -18.3916,36.169 -27.5484,74.2473 -27.5484,114.559 0,96.5446 55.0707,184.914 141.4807,227.0271 45.6765,22.2611 93.069,30.1184 144,23.874 z m 243.6276,-30.1511 c 1.2438,-1.5861 1.2085,-1.6214 -0.3776,-0.3776 -1.6657,1.3064 -2.1955,2.1276 -1.3724,2.1276 0.2076,0 0.9951,-0.7875 1.75,-1.75 z" fill="#000000"/></g><text x="0" y="3788.3286" fill="#000000" font-size="5px" font-weight="bold" font-family="'Helvetica Neue', Helvetica, Arial-Unicode, Arial, Sans-serif">Created by Lucas Rathgeb</text><text x="0" y="3793.3286" fill="#000000" font-size="5px" font-weight="bold" font-family="'Helvetica Neue', Helvetica, Arial-Unicode, Arial, Sans-serif">from the Noun Project</text></svg>